<?xml version="1.0" encoding="iso-8859-1"?>
<!-- Generator: Adobe Illustrator 19.0.0, SVG Export Plug-In . SVG Version: 6.00 Build 0)  -->
<svg version="1.1" id="Layer_1" xmlns="http://www.w3.org/2000/svg" xmlns:xlink="http://www.w3.org/1999/xlink" x="0px" y="0px"
	 viewBox="0 0 353.342 353.342" style="enable-background:new 0 0 353.342 353.342;" xml:space="preserve">
<g id="XMLID_498_">
	<path id="XMLID_500_" d="M348.948,316.881l-30.938-30.938c7.573-11.538,11.996-25.32,11.996-40.123
		c0-0.078-0.006-0.154-0.006-0.231V25.854c0-8.284-6.716-15-15-15c-8.284,0-15,6.716-15,15v160.851
		c-8.734-6.419-18.936-10.94-30-12.981V25.854c0-8.284-6.716-15-15-15s-15,6.716-15,15v148.568
		c-11.195,2.614-21.419,7.779-30,14.876V25.854c0-8.284-6.716-15-15-15c-8.284,0-15,6.716-15,15v169.975
		c0,7.389,5.347,13.516,12.38,14.757c-5.758,10.464-9.042,22.472-9.042,35.235c0,40.436,32.897,73.334,73.334,73.334
		c14.804,0,28.587-4.423,40.125-11.998l30.938,30.938c2.929,2.929,6.768,4.393,10.606,4.393s7.678-1.464,10.607-4.394
		C354.806,332.236,354.806,322.739,348.948,316.881z M213.338,245.821c0-23.894,19.439-43.333,43.334-43.333
		c23.817,0,43.203,19.314,43.328,43.102v0.231c0,0.026,0.004,0.051,0.004,0.077c-0.042,23.859-19.463,43.257-43.332,43.257
		C232.777,289.155,213.338,269.715,213.338,245.821z"/>
	<path id="XMLID_503_" d="M15,10.854c-8.284,0-15,6.716-15,15v259.961c0,8.284,6.716,15,15,15s15-6.716,15-15V25.854
		C30,17.57,23.284,10.854,15,10.854z"/>
	<path id="XMLID_504_" d="M75,10.854c-8.284,0-15,6.716-15,15v169.975c0,8.284,6.716,15,15,15s15-6.716,15-15V25.854
		C90,17.57,83.284,10.854,75,10.854z"/>
	<path id="XMLID_505_" d="M75,240.829c-8.284,0-15,6.716-15,15v29.986c0,8.284,6.716,15,15,15s15-6.716,15-15v-29.986
		C90,247.544,83.284,240.829,75,240.829z"/>
	<path id="XMLID_506_" d="M135,10.854c-8.284,0-15,6.716-15,15v169.975c0,8.284,6.716,15,15,15s15-6.716,15-15V25.854
		C150,17.57,143.284,10.854,135,10.854z"/>
	<path id="XMLID_507_" d="M135,240.829c-8.284,0-15,6.716-15,15v29.986c0,8.284,6.716,15,15,15s15-6.716,15-15v-29.986
		C150,247.544,143.284,240.829,135,240.829z"/>
</g>
<g>
</g>
<g>
</g>
<g>
</g>
<g>
</g>
<g>
</g>
<g>
</g>
<g>
</g>
<g>
</g>
<g>
</g>
<g>
</g>
<g>
</g>
<g>
</g>
<g>
</g>
<g>
</g>
<g>
</g>
</svg>
